:SAMPLES-PER-SECOND 30
:FULLY-SPECIFIED
:DEGREES
31
root  73.1349 40.0676 -14.3366 -10.3162 -75.4788 5.92835
RightUpLeg  2.50588 -13.3197 -8.3214
RightLeg  13.4029 -10.2293 -0.254251
RightFoot  -11.2606 -0.0778246 1.84088
RightToes  1.16414e-010 0 -3.6325e-017
Spine  3.09844 0.321868 -1.87424
Spine1  13.7166 2.14622 -5.12574
HEad  7.19487 22.9277 -4.26438
LeftShoulder1  8.97387 -12.2587 -49.6983
LeftArm  -56.4266 7.88194 -25.7365
LeftForeArm  -21.4484 -46.8585 -13.3086
LeftHand  -0.244104 0.0205437 5.32207
RightShoulder  4.88725 7.99066 36.5225
RightArm  -14.4843 -14.7195 43.7173
RightForeArm  29.6815 18.2042 3.37195
RightHand  0.00875769 -2.86737 1.23363
LeftUpLeg  -0.346518 4.69907 3.01009
LeftLeg  8.69454 -2.88819 -1.85185
LeftFoot  -5.61449 0.271058 -4.74492
LeftToes  -6.45774e-011 3.08606e-011 -5.1752e-012
32
root  72.869 40.0621 -14.5272 -9.47918 -75.1466 5.53202
RightUpLeg  2.67604 -13.2697 -8.07396
RightLeg  12.8756 -10.6196 0.235002
RightFoot  -10.6594 -0.0845727 2.08634
RightToes  1.16414e-010 0 -3.6325e-017
Spine  2.93928 0.421895 -1.69995
Spine1  13.4739 2.39259 -5.58454
HEad  5.57909 23.4479 -4.28238
LeftShoulder1  8.97153 -12.369 -49.3413
LeftArm  -56.1999 8.37062 -24.7052
LeftForeArm  -18.3434 -47.7635 -13.5522
LeftHand  -0.244104 0.0205437 5.32207
RightShoulder  4.8886 7.97205 36.6007
RightArm  -13.1306 -13.9703 43.3569
RightForeArm  26.9986 17.842 3.63068
RightHand  -0.0414051 -2.09277 -1.0579
LeftUpLeg  -0.58638 4.58529 3.3102
LeftLeg  8.66134 -3.1707 -1.73538
LeftFoot  -5.30271 0.272266 -4.5595
LeftToes  -6.45774e-011 3.08606e-011 -5.1752e-012
33
root  72.5777 40.0541 -14.7444 -8.78904 -74.9601 5.2463
RightUpLeg  2.85631 -13.1899 -7.76299
RightLeg  12.4438 -11.0432 0.684197
RightFoot  -10.4 -0.0871339 2.02174
RightToes  1.16414e-010 0 -3.6325e-017
Spine  2.92732 0.490597 -1.68696
Spine1  13.0983 2.50477 -5.7568
HEad  4.18228 23.7439 -4.06093
LeftShoulder1  8.88052 -12.3548 -48.8839
LeftArm  -56.2404 8.78405 -23.1908
LeftForeArm  -15.5069 -48.3508 -13.6617
LeftHand  -0.244104 0.0205437 5.32207
RightShoulder  4.87666 8.00891 36.3677
RightArm  -11.8417 -12.907 42.8454
RightForeArm  23.4972 17.2508 3.97676
RightHand  -0.124854 -1.64835 -3.66294
LeftUpLeg  -0.75322 4.51404 3.65938
LeftLeg  8.67421 -3.09944 -1.5462
LeftFoot  -5.17312 0.249532 -4.05207
LeftToes  -6.45774e-011 3.08606e-011 -5.1752e-012
34
root  72.2642 40.0458 -14.9897 -8.37989 -75.0232 5.10466
RightUpLeg  3.10123 -12.9326 -7.33278
RightLeg  12.1515 -11.3078 1.01318
RightFoot  -10.5896 -0.0833553 1.75488
RightToes  1.16414e-010 0 -3.6325e-017
Spine  3.01086 0.581801 -1.68114
Spine1  12.8667 2.61272 -5.8019
HEad  2.76779 23.9585 -3.77293
LeftShoulder1  8.72022 -12.2531 -48.3072
LeftArm  -56.1933 8.91026 -21.1267
LeftForeArm  -13.7268 -48.3908 -13.5717
LeftHand  -0.244104 0.0205437 5.32207
RightShoulder  4.89676 8.14351 36.0584
RightArm  -10.8175 -11.5835 42.1722
RightForeArm  22.1753 16.9742 4.15974
RightHand  -0.205595 -1.00774 -5.36495
LeftUpLeg  -0.672571 4.49573 4.11596
LeftLeg  8.67723 -2.99766 -1.35074
LeftFoot  -5.29699 0.235137 -3.85205
LeftToes  -6.45774e-011 3.08606e-011 -5.1752e-012
35
root  71.9242 40.0264 -15.2519 -8.0143 -75.2313 4.90145
RightUpLeg  3.38911 -12.5707 -6.79847
RightLeg  12.0264 -11.5088 1.22972
RightFoot  -10.9782 -0.0788063 1.37378
RightToes  1.16414e-010 0 -3.6325e-017
Spine  3.10257 0.711205 -1.49193
Spine1  12.7504 2.79904 -5.9091
HEad  1.46799 24.3668 -3.49399
LeftShoulder1  8.557 -12.1899 -47.5852
LeftArm  -55.8507 8.82369 -18.5172
LeftForeArm  -12.2238 -47.8722 -13.234
LeftHand  -0.244104 0.0205437 5.32207
RightShoulder  4.935 8.26269 35.9602
RightArm  -10.0908 -10.1784 41.2952
RightForeArm  22.5687 16.9282 4.19172
RightHand  -0.291953 0.058271 -6.26415
LeftUpLeg  -0.501156 4.5409 4.68918
LeftLeg  8.87384 -3.14327 -1.16879
LeftFoot  -5.53942 0.26718 -4.62008
LeftToes  -6.45774e-011 3.08606e-011 -5.1752e-012
36
root  71.5608 39.9771 -15.5241 -7.21882 -75.4233 4.25886
RightUpLeg  3.58472 -12.2317 -6.10174
RightLeg  12.1784 -11.7559 1.32658
RightFoot  -11.5311 -0.0766087 0.953638
RightToes  1.16414e-010 0 -3.6325e-017
Spine  3.14601 0.797419 -1.11528
Spine1  12.6649 2.94382 -5.96682
HEad  0.533746 25.1009 -3.18533
LeftShoulder1  8.3911 -12.1579 -46.7411
LeftArm  -55.2314 8.74529 -15.6368
LeftForeArm  -9.94853 -47.1879 -12.7773
LeftHand  -0.244104 0.0205437 5.32207
RightShoulder  4.95991 8.33412 35.9188
RightArm  -9.38166 -8.77241 40.4939
RightForeArm  22.1476 16.9875 4.2463
RightHand  -0.361061 0.584643 -7.11667
LeftUpLeg  -0.646555 4.47489 5.31019
LeftLeg  9.73392 -2.99667 -0.821756
LeftFoot  -6.03188 0.291498 -5.50003
LeftToes  -6.45774e-011 3.08606e-011 -5.1752e-012
37
root  71.193 39.867 -15.8035 -5.6618 -75.5268 2.85325
RightUpLeg  3.51019 -12.1469 -5.20854
RightLeg  12.9329 -11.8528 1.27151
RightFoot  -12.4741 -0.0769955 0.734943
RightToes  1.16414e-010 0 -3.6325e-017
Spine  3.21849 0.770288 -0.567037
Spine1  12.6074 2.92703 -5.76014
HEad  -0.272409 26.1297 -2.95379
LeftShoulder1  8.18675 -12.079 -45.8073
LeftArm  -54.5132 8.6996 -12.8434
LeftForeArm  -7.40689 -46.6445 -12.3741
LeftHand  -0.244104 0.0205437 5.32207
RightShoulder  4.9697 8.40634 35.751
RightArm  -8.46208 -7.34949 39.9834
RightForeArm  19.7768 17.4266 4.34001
RightHand  -0.378703 0.0142781 -8.19693
LeftUpLeg  -1.41536 3.60793 5.94168
LeftLeg  11.7348 -1.87947 -0.199644
LeftFoot  -7.14702 0.246158 -5.52563
LeftToes  -6.45774e-011 3.08606e-011 -5.1752e-012
38
root  70.8403 39.6708 -16.0788 -3.30656 -75.4862 0.565035
RightUpLeg  3.11291 -12.6387 -4.20591
RightLeg  14.5717 -11.5207 1.09962
RightFoot  -13.8567 -0.0775917 0.736254
RightToes  1.16414e-010 0 -3.6325e-017
Spine  3.59363 0.655903 0.250861
Spine1  12.424 2.77442 -5.20696
HEad  -1.24572 27.2865 -2.94903
LeftShoulder1  7.96499 -11.9577 -44.8823
LeftArm  -53.8822 8.48363 -10.3593
LeftForeArm  -5.70006 -46.1738 -12.0613
LeftHand  -0.244104 0.0205437 5.32207
RightShoulder  4.96511 8.44791 35.5711
RightArm  -7.28234 -6.00276 39.5962
RightForeArm  16.2092 18.521 4.38231
RightHand  -0.397671 -0.478801 -9.37989
LeftUpLeg  -2.91462 1.32665 6.74199
LeftLeg  15.2119 0.232675 0.474812
LeftFoot  -8.73025 0.183865 -5.87993
LeftToes  -6.45774e-011 3.08606e-011 -5.1752e-012
39
root  70.5004 39.4185 -16.3388 -0.588488 -75.1062 -2.26142
RightUpLeg  2.7421 -13.7385 -3.23591
RightLeg  16.6575 -10.9542 0.945376
RightFoot  -15.3891 -0.0821593 0.630223
RightToes  1.16414e-010 0 -3.6325e-017
Spine  4.46419 0.507423 1.30378
Spine1  12.0301 2.5471 -4.38525
HEad  -2.21162 28.235 -3.12767
LeftShoulder1  7.80814 -11.8889 -44.164
LeftArm  -53.3972 7.83066 -8.29156
LeftForeArm  -4.76786 -45.5976 -11.7597
LeftHand  -0.244104 0.0205437 5.32207
RightShoulder  4.92116 8.3716 35.4699
RightArm  -6.07448 -4.89988 39.1577
RightForeArm  12.4316 20.1594 4.37341
RightHand  -0.500958 0.230338 -10.4079
LeftUpLeg  -5.26431 -0.938455 7.72652
LeftLeg  20.4721 2.6606 1.41998
LeftFoot  -9.72428 0.17064 -7.79587
LeftToes  -6.45774e-011 3.08606e-011 -5.1752e-012
40
root  70.1523 39.1866 -16.5861 1.54412 -74.207 -4.67332
RightUpLeg  2.88361 -14.9911 -2.42222
RightLeg  18.2836 -10.7613 0.877295
RightFoot  -16.8019 -0.0956675 0.376563
RightToes  1.16414e-010 0 -3.6325e-017
Spine  5.5732 0.345067 2.28541
Spine1  11.8145 2.26202 -3.47017
HEad  -2.96629 28.6637 -3.42443
LeftShoulder1  7.77109 -11.9411 -43.7873
LeftArm  -53.0277 6.57167 -6.75537
LeftForeArm  -4.18323 -44.9031 -11.4395
LeftHand  -0.244104 0.0205437 5.32207
RightShoulder  4.83625 8.21027 35.3184
RightArm  -5.50752 -4.07322 38.7961
RightForeArm  8.76001 22.117 4.47018
RightHand  -0.644832 1.33838 -11.2603
LeftUpLeg  -8.59117 -1.86182 8.43471
LeftLeg  27.5795 6.15762 3.86495
LeftFoot  -8.87126 0.253948 -9.30105
LeftToes  -6.45774e-011 3.08606e-011 -5.1752e-012
41
root  69.7731 39.0074 -16.8164 2.56741 -73.0117 -5.97369
RightUpLeg  3.44645 -15.9286 -1.80476
RightLeg  19.2378 -11.1439 0.801389
RightFoot  -18.093 -0.106102 0.272917
RightToes  1.16414e-010 0 -3.6325e-017
Spine  6.44969 0.243696 3.05599
Spine1  12.083 2.02498 -2.64638
HEad  -3.54602 28.5886 -3.89171
LeftShoulder1  7.84324 -12.1126 -43.7048
LeftArm  -52.6419 4.83392 -5.80042
LeftForeArm  -4.58762 -44.1728 -11.1771
LeftHand  -0.244104 0.0205437 5.32207
RightShoulder  4.76758 8.09979 35.1236
RightArm  -6.1546 -3.51166 38.6105
RightForeArm  5.40308 24.321 4.90457
RightHand  -0.757463 1.82825 -12.3357
LeftUpLeg  -12.6938 -1.58634 8.40149
LeftLeg  35.6789 10.439 8.31099
LeftFoot  -6.08559 0.382322 -7.73351
LeftToes  -6.45774e-011 3.08606e-011 -5.1752e-012
42
root  69.3383 38.8513 -17.0074 2.75612 -72.0672 -6.21216
RightUpLeg  3.89418 -16.4637 -1.38701
RightLeg  20.0714 -11.6681 0.611757
RightFoot  -19.3109 -0.112272 0.266423
RightToes  1.16414e-010 0 -3.6325e-017
Spine  6.89504 0.321098 3.77805
Spine1  12.5064 2.04495 -2.13725
HEad  -3.73941 28.3397 -4.46086
LeftShoulder1  7.97886 -12.3468 -43.8098
LeftArm  -52.0082 3.0249 -5.29829
LeftForeArm  -6.72971 -43.4711 -11.0411
LeftHand  -0.244104 0.0205437 5.32207
RightShoulder  4.7764 8.12181 35.1213
RightArm  -7.34261 -3.2529 38.5347
RightForeArm  2.30528 26.5669 5.59287
RightHand  -0.889123 2.09956 -13.9146
LeftUpLeg  -16.7665 -0.0119809 7.46125
LeftLeg  42.3763 11.8846 11.6737
LeftFoot  -3.36094 0.329815 -4.37954
LeftToes  -6.45774e-011 3.08606e-011 -5.1752e-012
43
root  68.8218 38.7531 -17.1578 2.04253 -71.6079 -5.25626
RightUpLeg  4.33204 -16.5128 -1.2922
RightLeg  20.4832 -12.1982 0.438335
RightFoot  -20.1696 -0.126051 0.135043
RightToes  1.16414e-010 0 -3.6325e-017
Spine  7.137 0.575488 4.29035
Spine1  12.5728 2.33695 -2.19786
HEad  -3.10214 28.1866 -4.91618
LeftShoulder1  8.11954 -12.5356 -44.0711
LeftArm  -51.0064 1.53959 -5.12112
LeftForeArm  -9.75478 -42.9602 -11.031
LeftHand  -0.244104 0.0205437 5.32207
RightShoulder  4.84954 8.2281 35.3681
RightArm  -7.89381 -3.23925 38.6653
RightForeArm  -0.626374 28.3587 6.16989
RightHand  -1.10163 2.84166 -15.6758
LeftUpLeg  -19.8384 2.69121 5.5572
LeftLeg  45.116 9.38124 10.3301
LeftFoot  -2.55413 0.244997 -2.96827
LeftToes  -6.45774e-011 3.08606e-011 -5.1752e-012
